<svg width="12" height="14" viewBox="0 0 12 14" fill="none" xmlns="http://www.w3.org/2000/svg">
<path d="M11.4733 4.88002L7.33333 0.85335C6.98264 0.519919 6.51724 0.333984 6.03333 0.333984C5.54943 0.333984 5.08403 0.519919 4.73333 0.85335L0.593333 4.85335C0.409387 5.01393 0.261443 5.21156 0.159193 5.43329C0.0569428 5.65502 0.00269376 5.89586 0 6.14002V11.86C0.00702698 12.3451 0.206029 12.8076 0.553412 13.1462C0.900795 13.4849 1.36824 13.672 1.85333 13.6667H10.1467C10.6318 13.672 11.0992 13.4849 11.4466 13.1462C11.794 12.8076 11.993 12.3451 12 11.86V6.14002C11.9995 5.90567 11.9527 5.67372 11.8623 5.4575C11.7719 5.24128 11.6397 5.04503 11.4733 4.88002V4.88002ZM5.62667 1.81335C5.72865 1.72012 5.86183 1.66843 6 1.66843C6.13817 1.66843 6.27135 1.72012 6.37333 1.81335L10 5.33335L6.35333 8.85335C6.25135 8.94658 6.11817 8.99827 5.98 8.99827C5.84183 8.99827 5.70865 8.94658 5.60667 8.85335L2 5.33335L5.62667 1.81335ZM10.6667 11.86C10.6581 11.9909 10.5991 12.1133 10.5021 12.2016C10.4052 12.2898 10.2777 12.3371 10.1467 12.3334H1.85333C1.72225 12.3371 1.59483 12.2898 1.49786 12.2016C1.40088 12.1133 1.34191 11.9909 1.33333 11.86V6.56668L4.03333 9.16668L2.92667 10.2334C2.8025 10.3583 2.73281 10.5272 2.73281 10.7034C2.73281 10.8795 2.8025 11.0484 2.92667 11.1734C2.98863 11.2384 3.06309 11.2902 3.14557 11.3257C3.22806 11.3612 3.31686 11.3797 3.40667 11.38C3.57831 11.3793 3.74308 11.3125 3.86667 11.1934L5.04667 10.06C5.33974 10.2391 5.67654 10.3339 6.02 10.3339C6.36346 10.3339 6.70026 10.2391 6.99333 10.06L8.17333 11.1934C8.29692 11.3125 8.46169 11.3793 8.63333 11.38C8.72314 11.3797 8.81195 11.3612 8.89443 11.3257C8.97691 11.2902 9.05137 11.2384 9.11333 11.1734C9.2375 11.0484 9.3072 10.8795 9.3072 10.7034C9.3072 10.5272 9.2375 10.3583 9.11333 10.2334L8 9.16668L10.6667 6.56668V11.86Z" fill="white"/>
</svg>
