<svg width="14" height="14" viewBox="0 0 14 14" fill="none" xmlns="http://www.w3.org/2000/svg">
<path d="M11.9391 7.66683C11.7925 7.66683 11.6391 7.62016 11.4925 7.58683C11.1957 7.52047 10.9039 7.43359 10.6191 7.32683C10.3099 7.21432 9.9699 7.22016 9.66468 7.34323C9.35945 7.46631 9.11053 7.69792 8.9658 7.9935L8.81914 8.30016C8.17169 7.93297 7.57356 7.48493 7.03914 6.96683C6.52104 6.43241 6.073 5.83428 5.7058 5.18683L6.01247 5.04683C6.30805 4.90211 6.53966 4.65318 6.66273 4.34796C6.78581 4.04273 6.79165 3.70277 6.67914 3.3935C6.57326 3.10618 6.48641 2.81221 6.41914 2.5135C6.3858 2.36683 6.35914 2.2135 6.33914 2.06683C6.25818 1.59724 6.01222 1.17199 5.64555 0.867656C5.27888 0.563321 4.8156 0.399902 4.33914 0.406829H2.33247C2.05064 0.40646 1.7719 0.465661 1.51455 0.580552C1.2572 0.695442 1.02703 0.863428 0.839138 1.0735C0.647351 1.28927 0.504548 1.544 0.42054 1.82019C0.336532 2.09638 0.313311 2.38748 0.352471 2.6735C0.714863 5.44826 1.98261 8.02593 3.95914 10.0068C5.94004 11.9834 8.51771 13.2511 11.2925 13.6135C11.379 13.6201 11.4659 13.6201 11.5525 13.6135C12.0441 13.6142 12.5187 13.4338 12.8858 13.1068C13.0959 12.9189 13.2639 12.6888 13.3787 12.4314C13.4936 12.1741 13.5528 11.8953 13.5525 11.6135V9.6135C13.5489 9.15285 13.3864 8.70757 13.0924 8.35289C12.7985 7.99821 12.3911 7.75588 11.9391 7.66683ZM12.2658 11.6668C12.2656 11.7599 12.2459 11.8518 12.208 11.9368C12.1701 12.0217 12.1149 12.0978 12.0458 12.1602C11.9727 12.2267 11.8858 12.2762 11.7912 12.305C11.6967 12.3339 11.5969 12.3413 11.4991 12.3268C9.01132 12.0019 6.6993 10.8682 4.91914 9.10016C3.13745 7.31847 1.99382 4.99841 1.6658 2.50016C1.65132 2.40239 1.65876 2.30261 1.68759 2.20806C1.71641 2.11352 1.7659 2.02656 1.83247 1.9535C1.89555 1.8836 1.97272 1.82785 2.0589 1.78993C2.14508 1.75201 2.23832 1.73278 2.33247 1.7335H4.33247C4.48658 1.72973 4.63723 1.77949 4.75878 1.8743C4.88033 1.96911 4.96527 2.10311 4.99914 2.2535C4.99914 2.4335 5.05914 2.62016 5.09914 2.80016C5.17619 3.14941 5.27868 3.49254 5.4058 3.82683L4.47247 4.26683C4.31205 4.34047 4.18738 4.47473 4.12581 4.64016C4.05913 4.80247 4.05913 4.98452 4.12581 5.14683C5.08527 7.202 6.7373 8.85403 8.79247 9.8135C8.95478 9.88017 9.13683 9.88017 9.29914 9.8135C9.46457 9.75192 9.59883 9.62725 9.67247 9.46683L10.0925 8.5335C10.4364 8.65891 10.7883 8.76136 11.1458 8.84016C11.3191 8.88016 11.5058 8.9135 11.6858 8.94016C11.8362 8.97403 11.9702 9.05897 12.065 9.18052C12.1598 9.30207 12.2096 9.45272 12.2058 9.60683L12.2658 11.6668ZM8.33247 0.333496C8.17914 0.333496 8.01914 0.333496 7.8658 0.333496C7.68899 0.348525 7.52539 0.433176 7.411 0.568828C7.2966 0.704479 7.24078 0.880018 7.2558 1.05683C7.27083 1.23364 7.35548 1.39724 7.49114 1.51164C7.62679 1.62603 7.80233 1.68186 7.97914 1.66683H8.33247C9.39334 1.66683 10.4108 2.08826 11.1609 2.8384C11.911 3.58855 12.3325 4.60596 12.3325 5.66683C12.3325 5.78683 12.3325 5.90016 12.3325 6.02016C12.3177 6.19604 12.3733 6.37059 12.487 6.50556C12.6007 6.64053 12.7633 6.7249 12.9391 6.74016H12.9925C13.1594 6.74084 13.3204 6.6789 13.4439 6.56657C13.5673 6.45425 13.6441 6.29971 13.6591 6.1335C13.6591 5.98016 13.6591 5.82016 13.6591 5.66683C13.6591 4.2535 13.0982 2.89795 12.0994 1.89795C11.1006 0.897946 9.7458 0.335263 8.33247 0.333496V0.333496ZM9.6658 5.66683C9.6658 5.84364 9.73604 6.01321 9.86107 6.13823C9.98609 6.26326 10.1557 6.3335 10.3325 6.3335C10.5093 6.3335 10.6789 6.26326 10.8039 6.13823C10.9289 6.01321 10.9991 5.84364 10.9991 5.66683C10.9991 4.95959 10.7182 4.28131 10.2181 3.78121C9.71799 3.28111 9.03972 3.00016 8.33247 3.00016C8.15566 3.00016 7.98609 3.0704 7.86107 3.19543C7.73604 3.32045 7.6658 3.49002 7.6658 3.66683C7.6658 3.84364 7.73604 4.01321 7.86107 4.13823C7.98609 4.26326 8.15566 4.3335 8.33247 4.3335C8.68609 4.3335 9.02523 4.47397 9.27528 4.72402C9.52533 4.97407 9.6658 5.31321 9.6658 5.66683Z" fill="white"/>
</svg>
